<svg width="18" height="18" viewBox="0 0 18 18" fill="none" xmlns="http://www.w3.org/2000/svg">
<path fill-rule="evenodd" clip-rule="evenodd" d="M8.91 2.25L2.25 8.91V11.0325L11.0325 2.25H8.91ZM14.6325 2.31L2.30998 14.6325C2.37748 14.8875 2.51248 15.12 2.69248 15.3075C2.87998 15.4875 3.11248 15.6225 3.36748 15.69L15.6975 3.3675C15.555 2.85 15.15 2.445 14.6325 2.31ZM2.25 3.75C2.25 2.925 2.925 2.25 3.75 2.25H5.25L2.25 5.25V3.75ZM14.25 15.75C14.6625 15.75 15.0375 15.585 15.3075 15.3075C15.585 15.0375 15.75 14.6625 15.75 14.25V12.75L12.75 15.75H14.25ZM9.08999 15.75H6.96749L15.75 6.9675V9.09L9.08999 15.75Z" fill="currentColor"/>
</svg>
