<svg width="18" height="18" viewBox="0 0 18 18" fill="none" xmlns="http://www.w3.org/2000/svg">
<path fill-rule="evenodd" clip-rule="evenodd" d="M3.75 3.75H2.25V2.25H3.75V3.75ZM15.75 3.75H14.25V2.25H15.75V3.75ZM14.25 6.75H15.75V5.25H14.25V6.75ZM15.75 9.75H14.25V8.25H15.75V9.75ZM14.25 12.75H15.75V11.25H14.25V12.75ZM5.25 15.75H6.75V14.25H5.25V15.75ZM12.75 15.75H11.25V14.25H12.75V15.75ZM15.75 15.75H14.25V14.25H15.75V15.75ZM9.75 15.75H8.25V14.25H9.75V15.75ZM11.25 3.75H12.75V2.25H11.25V3.75ZM9.75 3.75H8.25V2.25H9.75V3.75ZM5.25 3.75H6.75V2.25H5.25V3.75ZM2.25 6.75H3.75V5.25H2.25V6.75ZM3.75 9.75H2.25V8.25H3.75V9.75ZM2.25 12.75H3.75V11.25H2.25V12.75ZM3.75 15.75H2.25V14.25H3.75V15.75Z" fill="currentColor"/>
</svg>
