<svg class="logoType"><path d="M39 33C43.8475 33.2334 50.5623 33.2334 55.333 33.2334C60.0268 33.2334 70.3296 33.2334 78 33V34.5859C72.6948 34.8157 71.666 35.6271 71.666 41.3817V80.622C71.666 86.3766 72.6985 87.188 78 87.4178V89C75.8252 88.8444 72.0468 88.7703 68.001 88.7703C63.7649 88.7703 59.2249 88.8481 56.5156 89V87.4178C63.0803 87.1843 64.413 86.3729 64.413 80.622V62.4321H58.6904C51.8987 62.4321 51.8218 67.8013 51.2104 72.8592H49.3797C49.8008 66.8712 49.874 64.2478 49.874 61.6207C49.874 60.4609 49.9143 59.3048 49.9143 57.8745C49.9143 56.0218 49.874 53.7429 49.647 50.4192H51.441C52.0525 54.2061 51.8987 60.8462 58.6904 60.8462H64.413V41.3817C64.413 35.6271 63.3842 34.8157 58.079 34.8157H53.1582C43.3899 34.8157 42.2036 38.6026 41.0979 49.6077H39.3039C39.4577 47.944 39.5345 45.6688 39.5345 43.1195C39.5345 41.1519 39.3808 37.0167 39 33Z" class="letter"></path></svg>