<svg width="18" height="18" viewBox="0 0 18 18" fill="none" xmlns="http://www.w3.org/2000/svg">
<path fill-rule="evenodd" clip-rule="evenodd" d="M2.25 3H15.75C16.5 3 17.25 3.70833 17.25 4.41667V14.3333C17.25 15.0417 16.5 15.75 15.75 15.75H2.25C1.425 15.75 0.75 15.1125 0.75 14.3333V4.41667C0.75 3.70833 1.5 3 2.25 3ZM15.7069 14.3187C15.7218 14.3063 15.7395 14.2915 15.75 14.2767H15.7425V4.47333C15.738 4.46904 15.7327 4.46346 15.727 4.45735C15.7139 4.44331 15.6982 4.42654 15.6825 4.41667H2.31L2.25 4.47333V14.3333H15.69C15.6945 14.329 15.7005 14.3241 15.7069 14.3187Z" fill="#1A1A1A"/>
<path d="M11.4231 8.625H6.57692V6.75L3.75 9.375L6.57692 12V10.125H11.4231V12L14.25 9.375L11.4231 6.75V8.625Z" fill="currentColor"/>
</svg>
